<svg width="77" height="35" xmlns="http://www.w3.org/2000/svg" xmlns:xlink="http://www.w3.org/1999/xlink"><use xlink:href="#path0_fill" transform="translate(35.3 5)" fill="#FFF"/><use xlink:href="#path1_fill" transform="translate(8.9 8.75)" fill-opacity=".17" filter="url(#filter0_f)"/><g transform="translate(8.9 5)"><use xlink:href="#path1_fill" fill="#007AFF"/><use xlink:href="#path1_fill" fill="url(#paint3_linear)" style="mix-blend-mode:soft-light"/></g><defs><filter id="filter0_f" filterUnits="userSpaceOnUse" x="34907" y="-2894" width="35" height="35" color-interpolation-filters="sRGB"><feFlood flood-opacity="0" result="BackgroundImageFix"/><feBlend in="SourceGraphic" in2="BackgroundImageFix" result="shape"/><feGaussianBlur stdDeviation="4.077" result="effect1_foregroundBlur"/></filter><linearGradient id="paint3_linear" x2="1" gradientUnits="userSpaceOnUse" gradientTransform="matrix(17.32892 17.75616 -17.32892 17.75616 .244 .25)"><stop offset="0" stop-color="#FFF" stop-opacity=".5"/><stop offset="1" stop-color="#FFF" stop-opacity=".01"/></linearGradient><path id="path0_fill" fill-rule="evenodd" d="M2.832 9.917v4.997h3.2c2.312 0 2.706-1.6 2.706-2.498 0-.875-.515-2.499-2.683-2.499H2.832zm0-7.344v4.771h3.05c2.313 0 2.708-1.523 2.708-2.373 0-.395-.082-.922-.383-1.382-.363-.558-1.055-1.016-2.324-1.016H2.832zM0 0h5.883c4.722 0 5.535 3.147 5.535 4.971 0 2.398-1.55 3.398-2.73 3.672 1.007.25 2.878 1.2 2.878 3.772 0 1.824-.812 5.072-5.535 5.072H0V0zm16.54 11.666c0 1.999 1.327 3.697 3.347 3.697 2.066 0 3.394-1.698 3.394-3.697s-1.328-3.697-3.394-3.697c-2.02 0-3.348 1.698-3.348 3.697zm3.347-6.12c-3.645 0-6.032 2.822-6.032 6.12 0 3.297 2.387 6.12 6.032 6.12 3.691 0 6.078-2.823 6.078-6.12 0-3.298-2.387-6.12-6.078-6.12zM28.695 0h2.684v17.487h-2.684V0zm6.918 2.323h2.68v3.522h2.96L39.63 8.12h-1.336v4.796c0 2.024.617 2.273 1.676 2.273.418 0 1.082-.05 1.351-.1v2.399c-.418.075-1.203.15-1.992.15-1.305 0-3.715-.175-3.715-4.097V8.119h-1.945V5.845h1.945V2.323z"/><path id="path1_fill" fill-rule="evenodd" d="M0 11.25h10.613L10.247 18l7.32-11.25H6.954L7.396 0 0 11.25z"/></defs></svg>